<svg width="24" height="24" viewBox="0 0 24 24" fill="none" xmlns="http://www.w3.org/2000/svg">
<path fill-rule="evenodd" clip-rule="evenodd" d="M6.47999 8.82656L2.67186 12L6.47999 15.1734C6.6919 15.3431 6.79561 15.614 6.75115 15.8818C6.70669 16.1496 6.521 16.3724 6.26564 16.4645C6.01027 16.5565 5.72509 16.5034 5.51999 16.3256L1.01999 12.5756C0.849046 12.4331 0.750214 12.2221 0.750214 11.9995C0.750214 11.777 0.849046 11.5659 1.01999 11.4234L5.51999 7.67343C5.83842 7.40834 6.31145 7.45157 6.57655 7.76999C6.84165 8.08842 6.79842 8.56146 6.47999 8.82656ZM22.98 11.4234L18.48 7.67343C18.274 7.50194 17.9922 7.45338 17.7407 7.54602C17.4892 7.63867 17.3062 7.85845 17.2607 8.12258C17.2152 8.38672 17.314 8.65507 17.52 8.82656L21.3281 12L17.52 15.1734C17.3081 15.3431 17.2044 15.614 17.2488 15.8818C17.2933 16.1496 17.479 16.3724 17.7343 16.4645C17.9897 16.5565 18.2749 16.5034 18.48 16.3256L22.98 12.5756C23.1509 12.4331 23.2498 12.2221 23.2498 11.9995C23.2498 11.777 23.1509 11.5659 22.98 11.4234ZM15.2559 3.04499C15.0689 2.97711 14.8627 2.98629 14.6825 3.0705C14.5022 3.15472 14.3629 3.30708 14.295 3.49406L8.29499 19.9941C8.22681 20.1812 8.23584 20.3877 8.32008 20.5681C8.40431 20.7485 8.55685 20.8881 8.74405 20.9559C8.82622 20.9851 8.91279 21 8.99999 21C9.31552 21 9.59731 20.8025 9.70499 20.5059L15.705 4.00593C15.7729 3.81895 15.7637 3.61267 15.6795 3.43246C15.5953 3.25224 15.4429 3.11287 15.2559 3.04499Z" fill="#120D1C"/>
</svg>
